#!OML:ASF \\sashay\E\Suitcase\Project 1\Capture day 1\Session 1\Male1.ASF
:FULLY-SPECIFIED
:DEGREES
107
root 0.797435 17.5418 -33.0017 3.34453 6.95372 -2.30761
lowerback 2.30978 -0.410501 -0.785488
upperback -1.1496 -0.500523 3.10214
thorax -2.44314 -0.210107 3.65912
lowerneck -15.7028 -1.80063 -2.04762
upperneck 11.1675 -2.14597 1.16003
head 5.98412 -1.03708 0.494166
rclavicle -4.77083e-015 7.55382e-015
rhumerus -33.4471 -12.1738 -76.0643
rradius 24.5872
rwrist -11.6602
rhand -10.1706 15.4952
rfingers 7.12502
rthumb 15.8194 -13.8785
lclavicle -4.77083e-015 7.55382e-015
lhumerus -32.689 4.33303 89.8721
lradius 27.5857
lwrist -7.2225
lhand -4.0428 40.6948
lfingers 7.12502
lthumb 21.7129 69.4971
rfemur -7.91851 -2.20477 22.0867
rtibia 24.1458
rfoot -19.9174 -12.7223
rtoes 10.9751
lfemur -11.1616 -6.47338 -16.8367
ltibia 27.1534
lfoot -19.5226 3.31374
ltoes -4.16472
108
root 0.791839 17.5371 -32.9981 3.29587 7.02328 -2.21425
lowerback 2.38401 -0.588723 -0.89812
upperback -1.07172 -0.743153 3.12692
thorax -2.38624 -0.331031 3.75905
lowerneck -16.5911 -1.99556 -2.15605
upperneck 12.1714 -2.37077 1.1404
head 6.45784 -1.14908 0.472297
rclavicle -1.03617e-014 3.18055e-015
rhumerus -33.1271 -11.8181 -76.2502
rradius 24.4883
rwrist -11.8308
rhand -10.3692 15.4532
rfingers 7.12502
rthumb 15.6281 -13.9355
lclavicle -1.03617e-014 3.18055e-015
lhumerus -32.464 4.97628 89.6116
lradius 27.4161
lwrist -7.39632
lhand -3.84506 40.4334
lfingers 7.12502
lthumb 21.9027 69.2136
rfemur -7.7953 -2.0582 22.0058
rtibia 24.0563
rfoot -19.939 -12.9428
rtoes 11.1847
lfemur -11.173 -6.40702 -16.907
ltibia 27.2761
lfoot -19.6395 3.04866
ltoes -3.67151
109
root 0.789796 17.5401 -32.9981 3.26911 6.94967 -2.3694
lowerback 2.38395 -0.395252 -0.726684
upperback -1.50383 -0.472616 2.98493
thorax -2.8533 -0.189957 3.5078
lowerneck -14.474 -2.13051 -1.78362
upperneck 11.387 -2.67052 1.13193
head 5.85392 -1.28767 0.402603
rclavicle 6.73383e-015 2.54444e-014
rhumerus -34.3515 -12.3782 -75.9324
rradius 24.6493
rwrist -11.8327
rhand -10.0977 15.5753
rfingers 7.12502
rthumb 15.8896 -13.7928
lclavicle 6.73383e-015 2.54444e-014
lhumerus -33.5211 4.07044 89.5688
lradius 27.7465
lwrist -7.17015
lhand -3.5176 41.0285
lfingers 7.12502
lthumb 22.2171 69.7716
rfemur -7.80083 -2.0376 22.1942
rtibia 24.1116
rfoot -20.1079 -12.802
rtoes 11.3332
lfemur -11.1185 -6.46733 -16.7287
ltibia 27.2159
lfoot -19.5681 3.22532
ltoes -3.05914
110
root 0.789285 17.5202 -33.0002 3.30581 6.94851 -2.28576
lowerback 2.3764 -0.628644 -0.875146
upperback -1.09567 -0.795088 3.13575
thorax -2.40309 -0.356842 3.75762
lowerneck -16.3496 -1.83673 -2.13484
upperneck 11.8086 -2.17777 1.23379
head 6.29872 -1.04777 0.521802
rclavicle -2.50966e-015 1.78906e-014
rhumerus -33.1554 -11.686 -76.2996
rradius 24.5462
rwrist -12.0981
rhand -10.3622 15.1648
rfingers 7.12502
rthumb 15.6348 -14.2234
lclavicle -2.50966e-015 1.78906e-014
lhumerus -32.5493 4.93244 89.4931
lradius 27.4212
lwrist -7.18491
lhand -3.7364 40.5501
lfingers 7.12502
lthumb 22.0071 69.3181
rfemur -7.79107 -2.11308 22.1021
rtibia 24.0506
rfoot -19.9488 -12.813
rtoes 9.64279
lfemur -11.2033 -6.46972 -16.831
ltibia 27.3065
lfoot -19.5487 3.20277
ltoes -4.03023
111
root 0.785267 17.5403 -32.9973 3.30917 7.05918 -2.24697
lowerback 2.26926 -0.501608 -0.97725
upperback -1.51412 -0.623952 3.00526
thorax -2.78668 -0.261254 3.6762
lowerneck -14.0707 -1.83804 -1.95786
upperneck 10.8703 -2.28053 1.40025
head 5.62316 -1.08722 0.55675
rclavicle 1.2101e-014 7.95139e-016
rhumerus -34.2804 -12.1654 -75.9567
rradius 24.5782
rwrist -12.0792
rhand -10.2991 15.4661
rfingers 7.12502
rthumb 15.6956 -13.9173
lclavicle 1.2101e-014 7.95139e-016
lhumerus -33.5023 4.12022 89.5049
lradius 27.6199
lwrist -6.8566
lhand -3.35358 41.3568
lfingers 7.12502
lthumb 22.3746 70.0811
rfemur -7.84202 -2.22102 22.0757
rtibia 24.1398
rfoot -20.0989 -12.7506
rtoes 10.9415
lfemur -11.1534 -6.47892 -16.8463
ltibia 27.2152
lfoot -19.476 3.25648
ltoes -4.00594
112
root 0.782588 17.5318 -33.0016 3.37912 7.05548 -2.26195
lowerback 2.27594 -0.610165 -1.05564
upperback -1.40994 -0.770818 3.12691
thorax -2.67021 -0.33471 3.85227
lowerneck -15.0407 -1.82098 -2.21739
upperneck 11.3903 -2.1982 1.46369
head 5.95135 -1.04856 0.617423
rclavicle 1.23246e-014 3.06128e-014
rhumerus -33.9124 -11.7163 -76.0726
rradius 24.6405
rwrist -12.2888
rhand -10.1347 15.5766
rfingers 7.12502
rthumb 15.854 -13.7943
lclavicle 1.23246e-014 3.06128e-014
lhumerus -33.1638 4.57299 89.5057
lradius 27.3934
lwrist -6.99075
lhand -3.47256 40.8608
lfingers 7.12502
lthumb 22.2604 69.5988
rfemur -7.955 -2.15139 22.1027
rtibia 24.1333
rfoot -19.8811 -12.8521
rtoes 10.6648
lfemur -11.2662 -6.56873 -16.8113
ltibia 27.2331
lfoot -19.5829 3.24447
ltoes -3.91497
113
root 0.780951 17.5413 -32.9989 3.36735 7.08783 -2.25137
lowerback 2.25356 -0.638939 -1.15619
upperback -1.36262 -0.812874 3.16724
thorax -2.6039 -0.355029 3.95194
lowerneck -15.2558 -1.85692 -2.34135
upperneck 11.5052 -2.2386 1.61391
head 6.02768 -1.06048 0.67951
rclavicle 1.41634e-014 2.74323e-014
rhumerus -33.9064 -11.3656 -76.2056
rradius 24.9219
rwrist -12.5399
rhand -10.5153 15.4005
rfingers 7.12502
rthumb 15.4874 -13.9992
lclavicle 1.41634e-014 2.74323e-014
lhumerus -33.0659 4.25197 89.711
lradius 27.6136
lwrist -6.63033
lhand -3.76368 41.5668
lfingers 7.12502
lthumb 21.9809 70.3379
rfemur -7.96469 -2.25228 22.1022
rtibia 24.23
rfoot -20.0524 -12.8157
rtoes 10.9331
lfemur -11.1783 -6.62204 -16.8118
ltibia 27.0972
lfoot -19.432 3.2003
ltoes -3.90525
114
root 0.779665 17.5379 -33.0001 3.44936 7.09238 -2.18367
lowerback 2.19861 -0.622262 -1.2765
upperback -1.40749 -0.793926 3.17116
thorax -2.61918 -0.3426 4.02309
lowerneck -15.3438 -1.91666 -2.29515
upperneck 11.6114 -2.31329 1.51186
head 6.07585 -1.10243 0.631352
rclavicle -2.045e-014 9.14409e-015
rhumerus -33.7295 -11.7068 -75.9775
rradius 24.4636
rwrist -12.1341
rhand -10.4736 15.7739
rfingers 7.12502
rthumb 15.5275 -13.6226
lclavicle -2.045e-014 9.14409e-015
lhumerus -33.1293 4.22214 89.7246
lradius 27.5687
lwrist -6.67705
lhand -3.77516 41.4862
lfingers 7.12502
lthumb 21.9699 70.2585
rfemur -8.07532 -2.16054 22.0281
rtibia 24.1819
rfoot -19.9711 -12.8828
rtoes 10.7783
lfemur -11.2898 -6.65246 -16.8792
ltibia 27.1488
lfoot -19.4328 3.31773
ltoes -3.91315
115
root 0.777346 17.5391 -32.9969 3.4119 7.06629 -2.29012
lowerback 2.20872 -0.619834 -1.23554
upperback -1.31192 -0.790621 3.1941
thorax -2.52678 -0.343992 4.02243
lowerneck -15.7561 -1.91539 -2.16444
upperneck 11.7183 -2.3248 1.46248
head 6.1767 -1.10393 0.589823
rclavicle 2.20651e-014 -2.14687e-014
rhumerus -33.6608 -11.4426 -76.1576
rradius 24.83
rwrist -12.6117
rhand -11.0062 15.4371
rfingers 7.12502
rthumb 15.0145 -13.9985
lclavicle 2.20651e-014 -2.14687e-014
lhumerus -32.8622 4.17456 89.679
lradius 27.5378
lwrist -6.60303
lhand -3.61592 41.319
lfingers 7.12502
lthumb 22.1227 70.0733
rfemur -8.01034 -2.19538 22.1507
rtibia 24.2125
rfoot -19.9987 -12.8762
rtoes 10.8648
lfemur -11.2228 -6.65752 -16.7609
ltibia 27.1165
lfoot -19.4338 3.37008
ltoes -3.68861
116
root 0.773455 17.5357 -32.9968 3.46092 6.91659 -2.30963
lowerback 2.23558 -0.606038 -1.31397
upperback -1.43792 -0.771589 3.22113
thorax -2.6722 -0.329095 4.0965
lowerneck -15.5672 -1.85143 -2.16059
upperneck 11.7361 -2.2475 1.48767
head 6.14973 -1.06522 0.606258
rclavicle -1.16041e-014 -1.78906e-014
rhumerus -34.0291 -11.1765 -76.1437
rradius 25.1636
rwrist -12.8798
rhand -10.8855 15.5004
rfingers 7.12502
rthumb 15.1308 -13.9265
lclavicle -1.16041e-014 -1.78906e-014
lhumerus -32.8574 4.5761 89.4916
lradius 27.1408
lwrist -7.12824
lhand -3.56814 40.7113
lfingers 7.12502
lthumb 22.1686 69.4602
rfemur -8.0665 -2.14095 22.1943
rtibia 24.1352
rfoot -19.7372 -12.929
rtoes 10.2325
lfemur -11.2986 -6.53047 -16.7213
ltibia 27.1912
lfoot -19.4395 3.39623
ltoes -4.0603
117
root 0.769479 17.5389 -32.9951 3.44259 7.00057 -2.3626
lowerback 2.13107 -0.64704 -1.43771
upperback -1.33742 -0.829999 3.33915
thorax -2.50188 -0.358956 4.28889
lowerneck -15.764 -1.82985 -2.30372
upperneck 11.7588 -2.19116 1.54624
head 6.19107 -1.03864 0.65218
rclavicle 2.36057e-015 1.98785e-014
rhumerus -33.6642 -11.3214 -75.9807
rradius 24.8766
rwrist -12.6168
rhand -10.8927 15.4003
rfingers 7.12502
rthumb 15.1239 -14.0271
lclavicle 2.36057e-015 1.98785e-014
lhumerus -32.6429 4.57246 89.6387
lradius 27.1425
lwrist -6.9107
lhand -3.36197 41.3698
lfingers 7.12502
lthumb 22.3665 70.0951
rfemur -8.00806 -2.29508 22.2627
rtibia 24.1409
rfoot -19.9498 -12.8055
rtoes 10.4303
lfemur -11.2905 -6.50248 -16.6427
ltibia 27.1816
lfoot -19.4426 3.32969
ltoes -3.9769
